<?xml version="1.0" encoding="utf-8"?>
<!-- Svg Vector Icons : http://www.onlinewebfonts.com/icon -->
<!DOCTYPE svg PUBLIC "-//W3C//DTD SVG 1.1//EN" "http://www.w3.org/Graphics/SVG/1.1/DTD/svg11.dtd">
<svg version="1.1" xmlns="http://www.w3.org/2000/svg" xmlns:xlink="http://www.w3.org/1999/xlink" x="0px" y="0px" viewBox="0 0 1000 1000" enable-background="new 0 0 1000 1000" xml:space="preserve">
<metadata> Svg Vector Icons : http://www.onlinewebfonts.com/icon </metadata>
<g><g transform="translate(0.000000,512.000000) scale(0.100000,-0.100000)"><path d="M4657.2,5000.1c-727.9-82.4-1388.8-390.8-1907.9-885c-523-500-842.9-1090-977-1804.5c-55.6-291.2-49.8-921.4,9.6-1197.3c84.3-396.5,153.3-557.4,701.1-1647.4C4205.1-3957.3,4494.3-4518.5,4571-4599c233.7-241.4,628.3-241.4,860.1,0c74.7,76.6,394.6,697.3,2147.4,4179.8c488.5,969.3,559.4,1139.8,643.6,1532.5c38.3,172.4,44.1,260.5,44.1,613c1.9,467.4-28.7,676.2-155.2,1051.7C7628.3,4228.1,6160.9,5170.6,4657.2,5000.1z M5480.9,3222.4c235.6-80.5,409.9-183.9,588.1-354.4c212.6-201.1,344.8-408,425.3-668.5c258.6-841-228-1726-1084.2-1971.2c-214.6-61.3-601.5-61.3-816,0c-570.9,162.8-1001.9,624.5-1126.4,1201.1c-38.3,176.2-28.7,507.6,19.2,689.6c155.2,584.3,601.5,1013.4,1199.2,1151.3c76.6,17.2,199.2,24.9,364,19.2C5270.2,3283.7,5320,3276.1,5480.9,3222.4z"/></g></g>
</svg>