<svg
  xmlns="http://www.w3.org/2000/svg"
  xmlns:xlink="http://www.w3.org/1999/xlink"
  width="91px" height="15px">
  <path
        d="M90.000,9.000 L12.000,9.000 C11.448,9.000 11.000,8.552 11.000,8.000 C11.000,7.447 11.448,7.000 12.000,7.000 L90.000,7.000 C90.552,7.000 91.000,7.447 91.000,8.000 C91.000,8.552 90.552,9.000 90.000,9.000 ZM2.904,7.646 L8.060,12.802 C8.451,13.193 8.451,13.826 8.060,14.217 C7.670,14.607 7.037,14.607 6.646,14.217 L0.989,8.560 C0.599,8.169 0.599,7.536 0.989,7.146 C0.989,7.146 0.989,7.146 0.989,7.146 C0.989,6.890 1.087,6.634 1.282,6.438 L6.939,0.781 C7.330,0.391 7.963,0.391 8.353,0.781 C8.744,1.173 8.744,1.805 8.353,2.196 L2.904,7.646 Z"/>
</svg>
