<svg
  xmlns="http://www.w3.org/2000/svg"
  xmlns:xlink="http://www.w3.org/1999/xlink"
  width="92px" height="14px">
  <path
        d="M90.731,7.352 C90.731,7.352 90.731,7.352 90.731,7.352 C90.731,7.609 90.634,7.865 90.440,8.060 L84.822,13.717 C84.434,14.107 83.805,14.107 83.417,13.717 C83.029,13.326 83.029,12.693 83.417,12.302 L88.830,6.853 L83.708,1.696 C83.320,1.305 83.320,0.672 83.708,0.281 C84.096,-0.109 84.725,-0.109 85.113,0.281 L90.731,5.939 C91.119,6.329 91.119,6.962 90.731,7.352 ZM79.000,7.500 L1.000,7.500 C0.448,7.500 0.000,7.052 0.000,6.500 C0.000,5.947 0.448,5.500 1.000,5.500 L79.000,5.500 C79.552,5.500 80.000,5.947 80.000,6.500 C80.000,7.052 79.552,7.500 79.000,7.500 Z"/>
</svg>
